<?xml version="1.0" encoding="UTF-8" standalone="no"?>
<svg viewBox="0 0 50 50"
 xmlns="http://www.w3.org/2000/svg" xmlns:xlink="http://www.w3.org/1999/xlink" version="1.2" baseProfile="tiny">
<title>Qt SVG Document</title>
<desc>Generated with Qt</desc>
<defs>
</defs>
<g fill="none" stroke="black" stroke-width="1" fill-rule="evenodd" stroke-linecap="square" stroke-linejoin="bevel" >

<g fill="#ffffff" fill-opacity="1" stroke="none" transform="matrix(2.94118,0,0,2.94118,59.0533,64.7518)"
font-family="Noto Sans" font-size="10" font-weight="400" font-style="normal" 
opacity="0.18" >
<rect x="-19.0789" y="-21.0147" width="15" height="15"/>
</g>

<g fill="#ffffff" fill-opacity="1" stroke="none" transform="matrix(2.94118,0,0,2.94118,59.0533,64.7518)"
font-family="Noto Sans" font-size="10" font-weight="400" font-style="normal" 
opacity="0.61" >
<path vector-effect="none" fill-rule="nonzero" d="M-20.0781,-22.0156 L-20.0781,-21.0156 L-20.0781,-6.01563 L-20.0781,-5.01563 L-3.07813,-5.01563 L-3.07813,-6.01563 L-3.07813,-21.0156 L-3.07813,-22.0156 L-20.0781,-22.0156 M-19.0781,-21.0156 L-4.07813,-21.0156 L-4.07813,-6.01563 L-19.0781,-6.01563 L-19.0781,-21.0156"/>
</g>

<g fill="#ffffff" fill-opacity="1" stroke="none" transform="matrix(2.94118,0,0,2.94118,59.0533,64.7518)"
font-family="Noto Sans" font-size="10" font-weight="400" font-style="normal" 
opacity="0.58" >
<path vector-effect="none" fill-rule="nonzero" d="M-16,-18 L-16,-9 L-15,-9 L-8,-9 L-7,-9 L-7,-18 L-8,-18 L-15,-18 L-16,-18 M-15,-16 L-8,-16 L-8,-10 L-15,-10 L-15,-16"/>
</g>

<g fill="none" stroke="#000000" stroke-opacity="1" stroke-width="1" stroke-linecap="square" stroke-linejoin="bevel" transform="matrix(1,0,0,1,0,0)"
font-family="Noto Sans" font-size="10" font-weight="400" font-style="normal" 
>
</g>
</g>
</svg>
