<?xml version="1.0" encoding="UTF-8" standalone="no"?>
<svg viewBox="0 0 50 50"
 xmlns="http://www.w3.org/2000/svg" xmlns:xlink="http://www.w3.org/1999/xlink" version="1.2" baseProfile="tiny">
<title>Qt SVG Document</title>
<desc>Generated with Qt</desc>
<defs>
</defs>
<g fill="none" stroke="black" stroke-width="1" fill-rule="evenodd" stroke-linecap="square" stroke-linejoin="bevel" >

<g fill="#ffffff" fill-opacity="1" stroke="none" transform="matrix(2.94118,0,0,2.94118,-6.44531,-8.26057)"
font-family="Noto Sans" font-size="10" font-weight="400" font-style="normal" 
opacity="0.2" >
<path vector-effect="none" fill-rule="nonzero" d="M2.19141,2.80859 L2.19141,3.80859 L2.19141,18.8086 L2.19141,19.8086 L19.1914,19.8086 L19.1914,18.8086 L19.1914,3.80859 L19.1914,2.80859 L2.19141,2.80859 M3.19141,3.80859 L18.1914,3.80859 L18.1914,18.8086 L3.19141,18.8086 L3.19141,3.80859"/>
</g>

<g fill="#ffffff" fill-opacity="1" stroke="none" transform="matrix(2.94118,0,0,2.94118,-6.44531,-8.26057)"
font-family="Noto Sans" font-size="10" font-weight="400" font-style="normal" 
opacity="0.4" >
<path vector-effect="none" fill-rule="nonzero" d="M6.19141,6.88086 L6.19141,15.8809 L7.19141,15.8809 L14.1914,15.8809 L15.1914,15.8809 L15.1914,6.88086 L14.1914,6.88086 L7.19141,6.88086 L6.19141,6.88086 M7.19141,8.88086 L14.1914,8.88086 L14.1914,14.8809 L7.19141,14.8809 L7.19141,8.88086"/>
</g>

<g fill="none" stroke="#000000" stroke-opacity="1" stroke-width="1" stroke-linecap="square" stroke-linejoin="bevel" transform="matrix(1,0,0,1,0,0)"
font-family="Noto Sans" font-size="10" font-weight="400" font-style="normal" 
>
</g>
</g>
</svg>
