<?xml version="1.0" encoding="UTF-8" standalone="no"?>
<svg viewBox="0 0 50 50"
 xmlns="http://www.w3.org/2000/svg" xmlns:xlink="http://www.w3.org/1999/xlink" version="1.2" baseProfile="tiny">
<title>Qt SVG Document</title>
<desc>Generated with Qt</desc>
<defs>
</defs>
<g fill="none" stroke="black" stroke-width="1" fill-rule="evenodd" stroke-linecap="square" stroke-linejoin="bevel" >

<g fill="#ffffff" fill-opacity="1" stroke="none" transform="matrix(2.94118,0,0,2.94118,120.956,-6.25001)"
font-family="Noto Sans" font-size="10" font-weight="400" font-style="normal" 
opacity="0.2" >
<path vector-effect="none" fill-rule="nonzero" d="M-41.125,2.125 L-41.125,3.125 L-41.125,18.125 L-41.125,19.125 L-24.125,19.125 L-24.125,18.125 L-24.125,3.125 L-24.125,2.125 L-41.125,2.125 M-40.125,3.125 L-25.125,3.125 L-25.125,18.125 L-40.125,18.125 L-40.125,3.125"/>
</g>

<g fill="#ffffff" fill-opacity="1" stroke="none" transform="matrix(2.94118,0,0,2.94118,-8.45586,-6.25001)"
font-family="Noto Sans" font-size="10" font-weight="400" font-style="normal" 
opacity="0.4" >
<path vector-effect="none" fill-rule="nonzero" d="M8.87499,6.125 L8.87499,9.125 L7.87499,9.125 L6.87499,9.125 L6.87499,15.125 L7.87499,15.125 L12.875,15.125 L13.875,15.125 L13.875,13.125 L14.875,13.125 L15.875,13.125 L15.875,6.125 L14.875,6.125 L9.87499,6.125 L8.87499,6.125 M9.87499,8.125 L14.875,8.125 L14.875,12.125 L13.875,12.125 L13.875,9.125 L12.875,9.125 L9.87499,9.125 L9.87499,8.125"/>
</g>

<g fill="none" stroke="#000000" stroke-opacity="1" stroke-width="1" stroke-linecap="square" stroke-linejoin="bevel" transform="matrix(1,0,0,1,0,0)"
font-family="Noto Sans" font-size="10" font-weight="400" font-style="normal" 
>
</g>
</g>
</svg>
