<?xml version="1.0" encoding="UTF-8" standalone="no"?>
<svg viewBox="0 0 50 50"
 xmlns="http://www.w3.org/2000/svg" xmlns:xlink="http://www.w3.org/1999/xlink" version="1.2" baseProfile="tiny">
<title>Qt SVG Document</title>
<desc>Generated with Qt</desc>
<defs>
</defs>
<g fill="none" stroke="black" stroke-width="1" fill-rule="evenodd" stroke-linecap="square" stroke-linejoin="bevel" >

<g fill="#ffffff" fill-opacity="1" stroke="none" transform="matrix(2.94118,0,0,2.94118,59.0555,64.7492)"
font-family="Noto Sans" font-size="10" font-weight="400" font-style="normal" 
opacity="0.18" >
<rect x="-19.0789" y="-21.0147" width="15" height="15"/>
</g>

<g fill="#ffffff" fill-opacity="1" stroke="none" transform="matrix(2.94118,0,0,2.94118,59.0555,64.7492)"
font-family="Noto Sans" font-size="10" font-weight="400" font-style="normal" 
opacity="0.61" >
<path vector-effect="none" fill-rule="nonzero" d="M-20.0789,-22.0147 L-20.0789,-21.0147 L-20.0789,-6.01472 L-20.0789,-5.01472 L-3.07887,-5.01472 L-3.07887,-6.01472 L-3.07887,-21.0147 L-3.07887,-22.0147 L-20.0789,-22.0147 M-19.0789,-21.0147 L-4.07887,-21.0147 L-4.07887,-6.01472 L-19.0789,-6.01472 L-19.0789,-21.0147"/>
</g>

<g fill="#ffffff" fill-opacity="1" stroke="none" transform="matrix(2.94118,0,0,2.94118,59.0555,64.7492)"
font-family="Noto Sans" font-size="10" font-weight="400" font-style="normal" 
opacity="0.58" >
<path vector-effect="none" fill-rule="nonzero" d="M-14.0789,-18.0147 L-14.0789,-15.0147 L-15.0789,-15.0147 L-16.0789,-15.0147 L-16.0789,-9.01472 L-15.0789,-9.01472 L-10.0789,-9.01472 L-9.07887,-9.01472 L-9.07887,-11.0147 L-8.07887,-11.0147 L-7.07887,-11.0147 L-7.07887,-18.0147 L-8.07887,-18.0147 L-13.0789,-18.0147 L-14.0789,-18.0147 M-13.0789,-16.0147 L-8.07887,-16.0147 L-8.07887,-12.0147 L-9.07887,-12.0147 L-9.07887,-15.0147 L-10.0789,-15.0147 L-13.0789,-15.0147 L-13.0789,-16.0147"/>
</g>

<g fill="none" stroke="#000000" stroke-opacity="1" stroke-width="1" stroke-linecap="square" stroke-linejoin="bevel" transform="matrix(1,0,0,1,0,0)"
font-family="Noto Sans" font-size="10" font-weight="400" font-style="normal" 
>
</g>
</g>
</svg>
