<?xml version="1.0" encoding="UTF-8" standalone="no"?>
<svg viewBox="0 0 50 50"
 xmlns="http://www.w3.org/2000/svg" xmlns:xlink="http://www.w3.org/1999/xlink" version="1.2" baseProfile="tiny">
<title>Qt SVG Document</title>
<desc>Generated with Qt</desc>
<defs>
</defs>
<g fill="none" stroke="black" stroke-width="1" fill-rule="evenodd" stroke-linecap="square" stroke-linejoin="bevel" >

<g fill="#ffffff" fill-opacity="1" stroke="none" transform="matrix(2.94118,0,0,2.94118,59.0533,64.7485)"
font-family="Noto Sans" font-size="10" font-weight="400" font-style="normal" 
opacity="0.18" >
<rect x="-19.0789" y="-21.0147" width="15" height="15"/>
</g>

<g fill="#ffffff" fill-opacity="1" stroke="none" transform="matrix(2.94118,0,0,2.94118,59.0533,64.7485)"
font-family="Noto Sans" font-size="10" font-weight="400" font-style="normal" 
opacity="0.61" >
<path vector-effect="none" fill-rule="nonzero" d="M-20.0781,-22.0145 L-20.0781,-21.0145 L-20.0781,-6.01448 L-20.0781,-5.01448 L-3.07813,-5.01448 L-3.07813,-6.01448 L-3.07813,-21.0145 L-3.07813,-22.0145 L-20.0781,-22.0145 M-19.0781,-21.0145 L-4.07813,-21.0145 L-4.07813,-6.01448 L-19.0781,-6.01448 L-19.0781,-21.0145"/>
</g>

<g fill="#ffffff" fill-opacity="1" stroke="none" transform="matrix(0,-2.94118,2.94118,0,59.0533,64.7485)"
font-family="Noto Sans" font-size="10" font-weight="400" font-style="normal" 
opacity="0.58" >
<rect x="9" y="-16" width="2" height="8"/>
</g>

<g fill="none" stroke="#000000" stroke-opacity="1" stroke-width="1" stroke-linecap="square" stroke-linejoin="bevel" transform="matrix(1,0,0,1,0,0)"
font-family="Noto Sans" font-size="10" font-weight="400" font-style="normal" 
>
</g>
</g>
</svg>
