<?xml version="1.0" encoding="UTF-8" standalone="no"?>
<svg viewBox="0 0 50 50"
 xmlns="http://www.w3.org/2000/svg" xmlns:xlink="http://www.w3.org/1999/xlink" version="1.2" baseProfile="tiny">
<title>Qt SVG Document</title>
<desc>Generated with Qt</desc>
<defs>
</defs>
<g fill="none" stroke="black" stroke-width="1" fill-rule="evenodd" stroke-linecap="square" stroke-linejoin="bevel" >

<g fill="#662715" fill-opacity="1" stroke="none" transform="matrix(2.94118,0,0,2.94118,50.3676,-6.98529)"
font-family="Noto Sans" font-size="10" font-weight="400" font-style="normal" 
>
<rect x="-16.125" y="3.375" width="15" height="15"/>
</g>

<g fill="#afafaf" fill-opacity="1" stroke="none" transform="matrix(2.94118,0,0,2.94118,-8.63971,-6.25)"
font-family="Noto Sans" font-size="10" font-weight="400" font-style="normal" 
opacity="0.58" >
<path vector-effect="none" fill-rule="nonzero" d="M15.6334,13.3523 L12.9057,10.6247 L15.6325,7.89783 C16.0381,7.49211 16.0381,6.83463 15.6325,6.42908 C15.2268,6.0237 14.5693,6.0237 14.1642,6.42908 L11.4372,9.15621 L8.71015,6.42908 C8.30479,6.0237 7.64732,6.02353 7.24163,6.42924 C6.83618,6.83471 6.83618,7.49227 7.24181,7.89782 L9.96881,10.6247 L7.24158,13.3523 C6.83613,13.7578 6.83613,14.4154 7.24158,14.8208 C7.44446,15.0236 7.71008,15.125 7.97591,15.125 C8.24176,15.125 8.50737,15.0236 8.71026,14.8208 L11.4375,12.0932 L14.1649,14.8208 C14.3677,15.0236 14.6334,15.125 14.8991,15.125 C15.1648,15.125 15.4307,15.0236 15.6333,14.8208 C16.0389,14.4154 16.0389,13.7578 15.6333,13.3523 L15.6334,13.3523"/>
</g>

<g fill="#ffffff" fill-opacity="1" stroke="none" transform="matrix(2.94118,0,0,2.94118,-8.63971,-6.25)"
font-family="Noto Sans" font-size="10" font-weight="400" font-style="normal" 
opacity="0.3" >
<path vector-effect="none" fill-rule="nonzero" d="M2.9375,2.125 L2.9375,3.125 L2.9375,18.125 L2.9375,19.125 L19.9375,19.125 L19.9375,18.125 L19.9375,3.125 L19.9375,2.125 L2.9375,2.125 M3.9375,3.125 L18.9375,3.125 L18.9375,18.125 L3.9375,18.125 L3.9375,3.125"/>
</g>

<g fill="none" stroke="#000000" stroke-opacity="1" stroke-width="1" stroke-linecap="square" stroke-linejoin="bevel" transform="matrix(1,0,0,1,0,0)"
font-family="Noto Sans" font-size="10" font-weight="400" font-style="normal" 
>
</g>
</g>
</svg>
