<?xml version="1.0" encoding="UTF-8" standalone="no"?>
<svg viewBox="0 0 50 50"
 xmlns="http://www.w3.org/2000/svg" xmlns:xlink="http://www.w3.org/1999/xlink" version="1.2" baseProfile="tiny">
<title>Qt SVG Document</title>
<desc>Generated with Qt</desc>
<defs>
</defs>
<g fill="none" stroke="black" stroke-width="1" fill-rule="evenodd" stroke-linecap="square" stroke-linejoin="bevel" >

<g fill="#ffffff" fill-opacity="1" stroke="none" transform="matrix(2.94118,0,0,2.94118,-7.9071,-6.06618)"
font-family="Noto Sans" font-size="10" font-weight="400" font-style="normal" 
opacity="0.58" >
<path vector-effect="none" fill-rule="nonzero" d="M15.3834,13.2898 L12.6557,10.5622 L15.3825,7.83533 C15.7881,7.42961 15.7881,6.77213 15.3825,6.36658 C14.9768,5.9612 14.3193,5.9612 13.9142,6.36658 L11.1872,9.09371 L8.46015,6.36658 C8.05479,5.9612 7.39732,5.96103 6.99163,6.36674 C6.58618,6.77221 6.58618,7.42977 6.9918,7.83532 L9.71881,10.5622 L6.99158,13.2898 C6.58613,13.6953 6.58613,14.3529 6.99158,14.7583 C7.19446,14.9611 7.46008,15.0625 7.72591,15.0625 C7.99176,15.0625 8.25737,14.9611 8.46025,14.7583 L11.1875,12.0307 L13.9149,14.7583 C14.1177,14.9611 14.3834,15.0625 14.6491,15.0625 C14.9148,15.0625 15.1807,14.9611 15.3833,14.7583 C15.7889,14.3529 15.7889,13.6953 15.3833,13.2898 L15.3834,13.2898"/>
</g>

<g fill="#ffffff" fill-opacity="1" stroke="none" transform="matrix(2.94118,0,0,2.94118,-7.9071,-6.06618)"
font-family="Noto Sans" font-size="10" font-weight="400" font-style="normal" 
opacity="0.3" >
<path vector-effect="none" fill-rule="nonzero" d="M2.68841,2.0625 L2.68841,3.0625 L2.68841,18.0625 L2.68841,19.0625 L19.6884,19.0625 L19.6884,18.0625 L19.6884,3.0625 L19.6884,2.0625 L2.68841,2.0625 M3.68841,3.0625 L18.6884,3.0625 L18.6884,18.0625 L3.68841,18.0625 L3.68841,3.0625"/>
</g>

<g fill="none" stroke="#000000" stroke-opacity="1" stroke-width="1" stroke-linecap="square" stroke-linejoin="bevel" transform="matrix(1,0,0,1,0,0)"
font-family="Noto Sans" font-size="10" font-weight="400" font-style="normal" 
>
</g>
</g>
</svg>
