<?xml version="1.0" encoding="UTF-8" standalone="no"?>
<svg viewBox="0 0 50 50"
 xmlns="http://www.w3.org/2000/svg" xmlns:xlink="http://www.w3.org/1999/xlink" version="1.2" baseProfile="tiny">
<title>Qt SVG Document</title>
<desc>Generated with Qt</desc>
<defs>
</defs>
<g fill="none" stroke="black" stroke-width="1" fill-rule="evenodd" stroke-linecap="square" stroke-linejoin="bevel" >

<g fill="#b0b0b0" fill-opacity="1" stroke="none" transform="matrix(2.94118,0,0,2.94118,-8.82353,58.8235)"
font-family="Noto Sans" font-size="10" font-weight="400" font-style="normal" 
opacity="0.18" >
<rect x="4" y="-19" width="15" height="15"/>
</g>

<g fill="#cccccc" fill-opacity="1" stroke="none" transform="matrix(2.94118,0,0,2.94118,-8.82353,58.8235)"
font-family="Noto Sans" font-size="10" font-weight="400" font-style="normal" 
opacity="0.61" >
<path vector-effect="none" fill-rule="nonzero" d="M3,-20 L3,-19 L3,-4 L3,-3 L20,-3 L20,-4 L20,-19 L20,-20 L3,-20 M4,-19 L19,-19 L19,-4 L4,-4 L4,-19"/>
</g>

<g fill="#ffffff" fill-opacity="1" stroke="none" transform="matrix(2.94118,0,0,2.94118,-8.82353,58.8235)"
font-family="Noto Sans" font-size="10" font-weight="400" font-style="normal" 
opacity="0.58" >
<path vector-effect="none" fill-rule="nonzero" d="M9,-16 L9,-13 L8,-13 L7,-13 L7,-7 L8,-7 L13,-7 L14,-7 L14,-9 L15,-9 L16,-9 L16,-16 L15,-16 L10,-16 L9,-16 M10,-14 L15,-14 L15,-10 L14,-10 L14,-13 L13,-13 L10,-13 L10,-14"/>
</g>

<g fill="none" stroke="#000000" stroke-opacity="1" stroke-width="1" stroke-linecap="square" stroke-linejoin="bevel" transform="matrix(1,0,0,1,0,0)"
font-family="Noto Sans" font-size="10" font-weight="400" font-style="normal" 
>
</g>
</g>
</svg>
